<svg width="500" height="309" viewBox="0 0 500 309" fill="none" xmlns="http://www.w3.org/2000/svg">
<path fill-rule="evenodd" clip-rule="evenodd" d="M251.041 0L254.41 9.89468C256.194 15.4357 261.348 25.1325 265.708 31.663C270.267 38.1935 280.971 50.6608 289.692 59.3681C298.413 68.0754 313.478 80.7406 323.19 87.6669C332.902 94.5932 350.742 104.884 362.634 110.82C374.725 116.757 393.357 124.673 404.259 128.631C415.161 132.589 431.216 137.734 439.937 140.109C448.659 142.286 455.993 144.462 456.389 144.858C456.587 145.254 456.389 146.046 455.993 147.035C455.398 147.827 449.451 147.827 442.514 147.035C435.577 146.243 422.891 144.067 414.17 142.286C405.448 140.702 389.393 136.349 378.491 132.787C367.59 129.027 352.922 123.288 345.786 119.726C338.651 116.164 326.758 109.039 319.028 103.894C311.297 98.749 299.999 89.8437 293.458 83.9069C287.115 77.9701 277.799 67.8775 272.844 61.347C267.889 54.8166 260.753 42.745 250.248 19.7894L245.491 31.663C242.914 38.1935 237.364 48.484 233.4 54.4208C229.435 60.3576 219.525 72.0333 211.2 80.3448C202.875 88.4585 188.604 100.134 179.288 106.071C169.972 112.008 156.691 119.726 149.556 123.09C142.42 126.454 129.14 131.401 119.824 134.37C110.508 137.14 94.0562 141.296 83.1545 143.275C72.2528 145.452 59.369 147.431 54.6119 147.827C49.8548 148.222 45.4941 147.629 45.0977 146.441C44.7012 145.254 52.8279 142.286 62.7386 139.713C72.8474 137.14 89.6955 131.995 100.003 128.037C110.31 124.277 125.176 118.143 132.708 114.58C140.438 111.018 154.115 103.301 163.431 97.5616C172.747 91.8227 186.622 81.928 194.154 75.7933C201.884 69.8565 212.984 59.1702 219.128 52.2439C225.273 45.3177 233.994 33.8398 238.553 26.7156C243.112 19.5915 246.878 13.2589 246.878 12.4673C247.076 11.6757 248.067 8.70732 249.058 5.54102L251.041 0ZM264.519 144.66C321.208 144.858 358.472 146.046 378.491 148.222C394.745 149.806 416.152 152.18 426.062 153.368C435.775 154.753 449.65 157.523 456.785 159.7C463.921 161.877 476.607 166.429 485.13 169.793C493.455 173.355 500.194 176.521 499.996 176.719C499.599 177.115 488.698 175.136 475.616 172.563C462.534 169.793 445.487 166.626 437.955 165.439C430.225 164.252 398.709 162.075 367.59 160.492C336.47 158.909 297.621 156.93 281.367 156.336C264.915 155.742 227.057 156.138 197.127 157.325C167.197 158.513 124.383 160.69 101.985 162.273C79.1902 163.856 52.2333 167.022 40.5388 169.397C29.0424 171.772 16.1586 174.344 11.7979 175.334C7.43724 176.125 2.48192 176.917 0.896224 176.917C-0.88769 176.917 0.103373 175.73 2.87835 174.344C5.65333 172.761 18.5372 168.012 31.6192 163.658C48.2691 158.315 63.135 154.951 81.1724 152.576C95.2455 150.795 119.031 148.618 133.699 147.431C148.366 146.441 164.818 145.056 170.368 144.66C175.72 144.264 218.137 144.264 264.519 144.66ZM106.94 276.062C109.319 276.062 109.913 278.634 109.913 287.935C109.913 294.466 109.319 301.392 108.327 303.173C107.535 304.954 104.958 307.131 102.381 308.12C100.003 308.912 96.6329 309.308 95.0472 308.714C93.4615 308.12 92.0741 306.339 92.0741 304.756C92.0741 302.975 93.2633 302.184 95.0472 302.777C96.6329 303.371 99.4079 303.371 100.994 302.777C103.174 301.986 103.967 298.622 103.967 288.925C103.967 278.832 104.561 276.062 106.94 276.062ZM126.761 276.062C129.14 276.062 129.734 279.228 129.734 291.893C129.734 304.756 129.14 307.725 126.761 307.725C124.383 307.725 123.788 304.756 123.788 291.893C123.788 279.228 124.383 276.062 126.761 276.062ZM141.627 276.062H150.943C156.295 276.062 161.647 277.249 163.034 278.436C164.422 279.822 165.413 283.582 165.413 286.55C165.413 289.518 164.025 292.289 162.44 292.883C159.863 293.674 160.061 294.862 167.395 307.725H163.431C161.052 307.725 158.277 305.35 156.493 301.788C154.907 298.622 152.132 295.851 150.547 295.851C148.565 295.851 147.574 297.83 147.574 301.788C147.574 305.746 146.583 307.725 144.6 307.725C142.222 307.725 141.627 304.756 141.627 291.893V276.062ZM148.366 288.529C148.961 290.31 150.745 291.893 151.934 292.091C153.322 292.091 155.7 290.706 156.89 289.123C158.872 286.55 158.872 285.363 156.89 282.988C155.7 281.207 153.322 279.822 151.934 280.02C150.547 280.02 148.961 281.207 148.366 282.592C147.574 283.977 147.574 286.55 148.366 288.529ZM192.568 276.062C197.127 276.062 199.109 277.051 199.109 279.03C199.109 281.009 197.787 281.669 195.145 281.009C192.964 280.415 189.396 281.009 187.216 281.999C185.036 283.186 183.252 285.363 183.252 286.946C183.252 289.123 185.432 289.914 191.18 289.914C195.541 289.914 199.109 290.904 199.109 291.893C199.109 293.081 195.541 293.872 191.18 293.872C186.225 293.872 183.252 294.862 183.054 296.445C183.054 297.83 184.441 300.007 186.027 301.392C187.811 302.777 191.379 303.569 194.154 303.371C196.929 302.975 199.109 303.767 199.109 305.35C199.109 306.735 197.325 308.12 195.145 308.714C192.964 309.308 188.207 308.516 184.639 307.131C179.882 305.152 177.9 302.777 176.711 297.632C175.72 293.476 176.116 288.925 177.504 285.561C178.693 282.79 181.27 279.426 183.054 278.239C184.838 277.051 189.198 276.26 192.568 276.062V276.062ZM213.777 276.062C215.957 276.062 216.948 278.041 216.948 282.988C216.948 289.518 217.344 289.914 223.885 289.914C230.427 289.914 230.823 289.518 230.823 282.988C230.823 278.239 231.616 276.062 233.796 276.062C236.175 276.062 236.769 279.228 236.769 291.893C236.769 304.756 236.175 307.725 233.796 307.725C231.616 307.725 230.823 305.746 230.823 300.798C230.823 294.268 230.427 293.872 223.885 293.872C217.344 293.872 216.948 294.268 216.353 300.798C216.155 304.756 214.966 308.12 213.975 308.318C212.786 308.516 211.795 301.986 211.398 292.487C211.002 278.832 211.398 276.062 213.777 276.062V276.062ZM275.421 276.062C282.755 276.062 288.305 277.051 288.305 278.041C288.305 279.228 286.124 280.415 283.349 281.009C278.592 281.999 278.394 282.79 278.394 294.862C278.394 304.954 277.799 307.725 275.421 307.725C273.042 307.725 272.448 304.954 272.448 294.862C272.448 282.79 272.051 281.999 267.492 281.009C264.717 280.415 262.537 279.228 262.537 278.041C262.537 277.051 268.087 276.062 275.421 276.062ZM310.108 276.062C315.856 276.062 318.036 276.853 318.036 279.03C318.036 281.009 316.649 281.801 313.478 281.009C311.099 280.613 307.135 281.405 304.558 282.988C302.179 284.571 300.197 286.946 300.197 287.935C300.197 289.123 303.765 289.914 308.126 289.914C312.487 289.914 316.054 290.904 316.054 291.893C316.054 293.081 314.072 294.268 311.495 294.862C309.117 295.257 305.351 296.049 303.369 296.247C299.603 296.841 299.603 296.841 303.369 300.601C305.549 302.579 309.117 303.767 311.892 303.569C314.469 303.173 317.045 303.965 317.442 305.35C317.64 306.735 316.054 307.923 313.478 308.12C311.099 308.318 307.333 308.318 305.153 308.12C302.972 307.923 299.603 305.746 297.621 303.371C295.638 300.798 294.053 295.653 294.053 291.497C294.251 286.748 295.638 282.592 298.215 280.02C300.858 277.381 304.822 276.062 310.108 276.062V276.062ZM329.929 276.062C330.92 276.062 335.479 280.415 347.57 294.862L347.768 285.561C347.768 278.436 348.561 276.062 350.742 276.062C353.12 276.062 353.715 279.228 353.715 291.893C353.715 300.601 353.12 307.725 352.129 307.725C351.336 307.725 346.976 303.569 334.092 288.925L333.894 298.424C333.894 305.35 333.101 307.725 330.92 307.725C328.542 307.725 327.947 304.756 327.947 291.893C327.947 282.592 328.74 276.062 329.929 276.062V276.062ZM373.338 276.062C380.077 276.062 385.429 277.051 385.429 278.041C385.429 279.228 383.645 280.415 381.465 281.009C377.897 281.999 377.5 283.582 377.5 294.862C377.5 304.954 376.906 307.725 374.527 307.725C372.149 307.725 371.554 304.954 371.554 294.862C371.554 283.186 371.157 281.999 367.193 281.603C364.815 281.207 362.436 280.02 362.04 278.634C361.445 276.853 364.418 276.062 373.338 276.062ZM405.448 276.062C410.998 276.062 413.179 276.853 413.179 279.03C413.179 281.207 411.395 281.801 406.836 281.603C402.079 281.207 400.295 281.999 399.898 284.571C399.502 286.946 401.286 288.529 405.646 289.914C409.214 290.904 412.782 293.278 413.773 295.257C414.566 297.236 414.764 300.403 414.17 302.382C413.575 304.163 410.998 306.735 408.223 307.725C405.448 308.912 401.088 309.308 398.313 308.714C395.538 308.12 393.357 306.339 393.357 304.756C393.357 302.579 394.745 302.184 399.7 302.975C404.655 303.965 406.638 303.569 407.629 300.996C408.818 298.622 407.43 297.038 401.682 294.466C396.529 291.893 394.15 289.518 393.754 285.956C393.556 283.186 394.15 280.02 395.538 278.634C396.727 277.249 401.286 276.062 405.448 276.062V276.062Z" fill="white" fill-opacity="0.76"/>
</svg>
